<?xml version="1.0" encoding="UTF-8"?><svg id="a" xmlns="http://www.w3.org/2000/svg" viewBox="0 0 202.73 50"><defs><style>.b{letter-spacing:-.02em;}.c{fill:#fff;}.d{fill:#9ddbf8;font-family:Palatino-Roman, Palatino;font-size:42px;}</style></defs><g><g><path class="c" d="M10.69,30.04c-.05-.05-.09-.09-.12-.14-2.19-2.95-3.38-6.23-3.31-9.93,.07-3.65,1.34-6.87,3.6-9.71,2.68-3.38,6.18-5.6,10.25-6.91,5.63-1.81,11.24-1.68,16.8,.31,.19,.07,.37,.15,.5,.35-.1,0-.18,0-.27,0-.35,.02-.63,.17-.83,.45-.24,.33-.22,.41,.16,.55,2.3,.87,4.39,2.06,6.11,3.85,1.47,1.53,2.57,3.27,3.02,5.37,.25,1.16,.2,2.33,.02,3.49,0,.05-.02,.09-.04,.14-.03,.09-.03,.21-.17,.18-.13-.03-.1-.14-.09-.24,.33-2-.32-3.72-1.51-5.29-2.02-2.66-4.67-4.48-7.75-5.68-3.19-1.24-6.49-1.92-9.93-1.8-2.4,.08-4.69,.63-6.84,1.71-.14,.07-.28,.14-.42,.18-.09,.03-.21,.07-.26-.03-.06-.11,.04-.18,.13-.23,.3-.18,.58-.38,.9-.52,2.37-1.07,4.81-1.92,7.39-2.3,.55-.08,1.1-.13,1.66-.19-.35,0-.71-.01-1.06,0-5.23,.23-9.76,2.12-13.41,5.89-3.58,3.7-5.31,8.17-5.2,13.33,.05,2.07,.48,4.08,1.24,6.01,.08,.2,.1,.34-.1,.49-.21,.16-.34,.41-.49,.66Z"/><path class="c" d="M7.84,32.82c.63-.6,1.36-1.06,2.12-1.47,.7-.37,1.43-.7,2.19-.94,.96-.31,1.85-.79,2.83-1.05,3.98-1.05,7.92-1.02,11.83,.32,.86,.29,1.66,.7,2.39,1.26,.14,.1,.23,.09,.35,0,2.16-1.53,4.65-2.05,7.23-2.25,2.41-.19,4.8-.03,7.1,.71,1.82,.59,3.62,1.28,5.3,2.22,.6,.33,1.15,.72,1.67,1.19-.1,.05-.16,0-.22-.03-3.48-1.25-7.07-1.67-10.75-1.51-2.63,.11-5.2,.54-7.69,1.4-.92,.32-1.81,.7-2.67,1.16-.11,.06-.2,.1-.34,.03-2.32-1.26-4.82-1.94-7.42-2.31-3.96-.56-7.88-.39-11.75,.62-.73,.19-1.45,.43-2.18,.67Zm19.68-2.53c-2.84-1.42-7.85-1.93-11.96-.8,4.05-.63,8.04-.44,11.96,.8Zm4.1-.18c.96-.21,1.91-.46,2.88-.62,.98-.16,1.96-.26,2.95-.31,1-.05,2-.04,3,.02,.97,.06,1.94,.19,2.9,.31-3.97-.99-7.88-.88-11.73,.59Z"/><path class="c" d="M27.52,30.29c-3.92-1.24-7.91-1.43-11.96-.8,4.11-1.13,9.12-.62,11.96,.8Z"/><path class="c" d="M31.62,30.11c3.85-1.48,7.76-1.58,11.73-.59-.96-.12-1.93-.25-2.9-.31-1-.06-2-.08-3-.02-.99,.05-1.97,.16-2.95,.31-.97,.16-1.93,.41-2.88,.62Z"/></g><g><path class="c" d="M12.59,26.98h.35c.35,0,.56-.08,.63-.25,.07-.17,.1-.98,.1-2.43v-1.91c0-1.5-.03-2.33-.09-2.48-.06-.15-.24-.23-.54-.23h-.46v-.35c.62,.03,1.24,.04,1.85,.04,.51,0,.97-.01,1.38-.04v.35h-.44c-.27,0-.44,.03-.5,.1-.07,.06-.11,.23-.12,.48-.02,.4-.03,1.12-.03,2.15v1.94c0,1.46,.03,2.27,.1,2.41,.06,.15,.27,.22,.62,.22h.37v.35c-.46-.03-.97-.04-1.51-.04-.64,0-1.21,.01-1.72,.04v-.35Z"/><path class="c" d="M17.45,25.61v.37c0,.29,.03,.48,.08,.55,.1,.12,.29,.24,.57,.35,.28,.11,.58,.17,.88,.17,.39,0,.7-.1,.95-.31,.24-.21,.37-.46,.37-.75,0-.23-.07-.41-.21-.55-.14-.14-.41-.25-.82-.33-.75-.15-1.24-.28-1.48-.39-.24-.11-.42-.26-.54-.45-.12-.19-.18-.42-.18-.68,0-.5,.18-.91,.54-1.22,.36-.31,.88-.47,1.54-.47,.53,0,1.05,.11,1.57,.32-.03,.26-.06,.68-.08,1.28h-.34c0-.33-.04-.55-.11-.65-.09-.14-.24-.26-.47-.38-.23-.11-.47-.17-.73-.17-.34,0-.61,.09-.82,.26s-.31,.39-.31,.66,.08,.44,.24,.57c.16,.13,.61,.27,1.34,.42,.54,.11,.9,.21,1.07,.3,.17,.09,.31,.24,.42,.43,.11,.19,.16,.41,.16,.66,0,.51-.22,.94-.65,1.31s-1.01,.55-1.74,.55c-.46,0-.98-.07-1.55-.22-.1-.03-.15-.07-.15-.12l.02-.08c.01-.06,.03-.16,.04-.3,.03-.37,.05-.65,.05-.85v-.27h.34Z"/><path class="c" d="M24.08,21.86l.14,.08c-.03,.28-.04,.59-.05,.93-.03,1.1-.04,1.91-.04,2.43,0,.49,.02,.9,.05,1.25,.01,.14,.05,.23,.11,.28,.06,.05,.19,.09,.41,.12l.38,.05v.33c-.55-.03-1.05-.04-1.5-.04s-.89,.01-1.34,.04v-.33l.48-.05c.19-.02,.3-.05,.35-.1,.04-.05,.07-.24,.08-.55,.02-.48,.03-1.14,.03-1.98,0-.58,0-1.03-.03-1.35,0-.12-.04-.2-.1-.25-.06-.05-.19-.07-.39-.07h-.42v-.33c.46-.07,.8-.13,1.01-.18,.22-.06,.49-.15,.84-.28Zm-.45-2.5c.17,0,.32,.06,.44,.19,.12,.13,.19,.28,.19,.45s-.06,.33-.19,.45-.27,.19-.44,.19-.33-.06-.45-.19-.19-.27-.19-.45,.06-.33,.19-.45c.12-.13,.27-.19,.45-.19Z"/><path class="c" d="M26.62,25.61v.37c0,.29,.03,.48,.08,.55,.1,.12,.29,.24,.57,.35,.28,.11,.58,.17,.88,.17,.39,0,.7-.1,.95-.31,.24-.21,.37-.46,.37-.75,0-.23-.07-.41-.21-.55-.14-.14-.41-.25-.82-.33-.75-.15-1.24-.28-1.48-.39-.24-.11-.42-.26-.54-.45-.12-.19-.18-.42-.18-.68,0-.5,.18-.91,.54-1.22,.36-.31,.88-.47,1.54-.47,.53,0,1.05,.11,1.57,.32-.03,.26-.06,.68-.08,1.28h-.34c0-.33-.04-.55-.11-.65-.09-.14-.24-.26-.47-.38-.23-.11-.47-.17-.73-.17-.34,0-.61,.09-.82,.26s-.31,.39-.31,.66,.08,.44,.24,.57c.16,.13,.61,.27,1.34,.42,.54,.11,.9,.21,1.07,.3,.17,.09,.31,.24,.42,.43,.11,.19,.16,.41,.16,.66,0,.51-.22,.94-.65,1.31s-1.01,.55-1.74,.55c-.46,0-.98-.07-1.55-.22-.1-.03-.15-.07-.15-.12l.02-.08c.01-.06,.03-.16,.04-.3,.03-.37,.05-.65,.05-.85v-.27h.34Z"/><path class="c" d="M38.36,21.35l-.05-1c-.33-.22-.68-.39-1.05-.5-.37-.11-.75-.16-1.15-.16-1.01,0-1.83,.31-2.44,.92-.61,.62-.92,1.44-.92,2.47,0,.72,.15,1.37,.46,1.94,.31,.57,.75,1.02,1.32,1.35,.57,.33,1.17,.5,1.81,.5,.5,0,1-.06,1.49-.17,.37-.09,.74-.27,1.11-.54l.12,.11c-.08,.17-.15,.35-.22,.52-.44,.22-.88,.38-1.33,.49s-.89,.17-1.34,.17c-.92,0-1.74-.18-2.44-.54-.7-.36-1.24-.85-1.61-1.48-.38-.63-.56-1.34-.56-2.13s.19-1.5,.57-2.13c.38-.63,.92-1.11,1.61-1.45s1.54-.52,2.55-.52c.53,0,1.15,.09,1.86,.26,.35,.08,.64,.14,.86,.19-.17,.4-.27,.97-.29,1.7h-.38Z"/><path class="c" d="M44.09,22.8c.81,.05,1.39,.24,1.75,.56,.36,.32,.54,.77,.54,1.33,0,.72-.3,1.34-.9,1.86-.6,.52-1.36,.78-2.28,.78h-.44c-.38-.03-.69-.04-.95-.04-.19,0-.42,0-.69,.02l-.47,.02v-.25c.23-.11,.37-.2,.41-.26,.04-.06,.07-.16,.08-.3,.03-.45,.04-.96,.04-1.53v-3.51c0-.94-.03-1.47-.1-1.59-.08-.15-.28-.22-.6-.22h-.38v-.35h.47l.52,.02c.27,.01,.48,.02,.64,.02,.24,0,.7-.01,1.4-.04l.82-.02c.65,0,1.13,.11,1.45,.34,.4,.29,.6,.69,.6,1.22,0,.43-.14,.81-.43,1.13-.28,.32-.77,.6-1.46,.81Zm-1.87-.16c.19,.01,.36,.02,.52,.02,.75,0,1.28-.13,1.61-.4,.32-.26,.48-.65,.48-1.15,0-.43-.14-.76-.41-.99s-.7-.35-1.3-.35c-.26,0-.55,.02-.86,.07-.03,.46-.05,1.15-.05,2.08v.72Zm0,4.13c.35,.05,.64,.08,.87,.08,.66,0,1.18-.18,1.55-.53s.55-.84,.55-1.44c0-.41-.08-.74-.24-1.01-.16-.26-.39-.46-.68-.58-.29-.12-.76-.18-1.39-.18-.19,0-.41,0-.65,.02v2.71c.02,.26,.02,.45,.02,.59,0,.1,0,.22-.02,.35Z"/></g></g><text class="d" transform="translate(52.17 34.84)"><tspan x="0" y="0">Explo</tspan><tspan class="b" x="107.73" y="0">r</tspan><tspan x="123.58" y="0">e</tspan></text></svg>